<svg width="36" height="36" viewBox="0 0 36 36" fill="none" xmlns="http://www.w3.org/2000/svg">
<path d="M18 22.5C20.4853 22.5 22.5 20.4853 22.5 18C22.5 15.5147 20.4853 13.5 18 13.5C15.5147 13.5 13.5 15.5147 13.5 18C13.5 20.4853 15.5147 22.5 18 22.5Z" fill="#0519CE"/>
<path d="M24.1875 3.9375H11.8125C9.72465 3.93986 7.72298 4.77031 6.24665 6.24665C4.77031 7.72298 3.93986 9.72465 3.9375 11.8125V24.1875C3.93986 26.2754 4.77031 28.277 6.24665 29.7534C7.72298 31.2297 9.72465 32.0601 11.8125 32.0625H24.1875C26.2754 32.0601 28.277 31.2297 29.7534 29.7534C31.2297 28.277 32.0601 26.2754 32.0625 24.1875V11.8125C32.0601 9.72465 31.2297 7.72298 29.7534 6.24665C28.277 4.77031 26.2754 3.93986 24.1875 3.9375V3.9375ZM18 24.75C16.665 24.75 15.3599 24.3541 14.2499 23.6124C13.1399 22.8707 12.2747 21.8165 11.7638 20.5831C11.2529 19.3497 11.1192 17.9925 11.3797 16.6831C11.6402 15.3738 12.283 14.171 13.227 13.227C14.171 12.283 15.3738 11.6402 16.6831 11.3797C17.9925 11.1192 19.3497 11.2529 20.5831 11.7638C21.8165 12.2747 22.8707 13.1399 23.6124 14.2499C24.3541 15.3599 24.75 16.665 24.75 18C24.748 19.7896 24.0362 21.5053 22.7707 22.7707C21.5053 24.0362 19.7896 24.748 18 24.75V24.75ZM25.3125 12.375C24.9787 12.375 24.6525 12.276 24.375 12.0906C24.0975 11.9052 23.8812 11.6416 23.7535 11.3333C23.6257 11.0249 23.5923 10.6856 23.6574 10.3583C23.7225 10.0309 23.8833 9.73026 24.1193 9.49426C24.3553 9.25826 24.6559 9.09754 24.9833 9.03242C25.3106 8.96731 25.6499 9.00073 25.9583 9.12845C26.2666 9.25618 26.5302 9.47247 26.7156 9.74998C26.901 10.0275 27 10.3537 27 10.6875C27 11.1351 26.8222 11.5643 26.5057 11.8807C26.1893 12.1972 25.7601 12.375 25.3125 12.375Z" fill="#0519CE"/>
</svg>
