<svg width="36" height="36" viewBox="0 0 36 36" fill="none" xmlns="http://www.w3.org/2000/svg">
<path d="M34.6516 7.85718C34.5097 7.66747 34.3117 7.52736 34.0856 7.45684C33.8594 7.38631 33.6168 7.38896 33.3923 7.46442C32.0123 7.92847 30.5782 8.21275 29.1256 8.31023C28.3054 7.15565 27.1429 6.28828 25.8026 5.83087C24.4622 5.37346 23.012 5.34919 21.6571 5.76149C20.3022 6.17379 19.1113 7.00178 18.253 8.12826C17.3947 9.25474 16.9124 10.6227 16.8744 12.0384C14.6792 11.5927 12.5951 10.7134 10.7442 9.4519C8.8933 8.19043 7.3128 6.57218 6.09534 4.69202C5.97721 4.5105 5.80919 4.36694 5.61147 4.27858C5.41374 4.19021 5.19472 4.16079 4.98068 4.19385C4.76665 4.22691 4.56671 4.32105 4.40486 4.46496C4.24302 4.60887 4.12615 4.79643 4.06829 5.00513C3.07963 8.57882 3.14946 12.3626 4.26931 15.8974C5.38915 19.4322 7.51087 22.5659 10.377 24.9184C7.96529 26.2457 5.26437 26.96 2.51181 26.9985C2.26383 27.0023 2.02402 27.0878 1.82962 27.2418C1.63522 27.3958 1.49711 27.6097 1.43672 27.8502C1.37633 28.0908 1.39705 28.3445 1.49566 28.5721C1.59427 28.7997 1.76525 28.9883 1.98206 29.1087C4.8017 30.6696 7.97001 31.4929 11.1929 31.5019C14.4157 31.511 17.5886 30.7057 20.417 29.1607C23.2454 27.6157 25.6375 25.3811 27.3714 22.6644C29.1053 19.9477 30.1247 16.8369 30.335 13.621C32.0139 12.3863 33.479 10.8848 34.6722 9.17609C34.808 8.98208 34.8792 8.75013 34.8755 8.5133C34.8718 8.27647 34.7934 8.04686 34.6516 7.85718V7.85718Z" fill="#0519CE"/>
</svg>
