<svg width="36" height="36" viewBox="0 0 36 36" fill="none" xmlns="http://www.w3.org/2000/svg">
<path d="M18 3.375C14.2186 3.37507 10.5843 4.83971 7.85953 7.46159C5.13476 10.0835 3.53139 13.6588 3.38585 17.4373C3.24031 21.2159 4.56391 24.9039 7.07892 27.7277C9.59393 30.5514 13.1049 32.2912 16.875 32.5822V21.3751H13.5C13.2016 21.3751 12.9155 21.2566 12.7045 21.0456C12.4935 20.8346 12.375 20.5485 12.375 20.2501C12.375 19.9518 12.4935 19.6656 12.7045 19.4546C12.9155 19.2437 13.2016 19.1251 13.5 19.1251H16.875V15.7501C16.8764 14.5571 17.3509 13.4133 18.1945 12.5697C19.0381 11.726 20.1819 11.2515 21.375 11.2501H23.625C23.9234 11.2501 24.2095 11.3687 24.4205 11.5796C24.6315 11.7906 24.75 12.0768 24.75 12.3751C24.75 12.6735 24.6315 12.9596 24.4205 13.1706C24.2095 13.3816 23.9234 13.5001 23.625 13.5001H21.375C20.7785 13.5008 20.2066 13.7381 19.7848 14.1599C19.363 14.5817 19.1257 15.1536 19.125 15.7501V19.1251H22.5C22.7984 19.1251 23.0845 19.2437 23.2955 19.4546C23.5065 19.6656 23.625 19.9518 23.625 20.2501C23.625 20.5485 23.5065 20.8346 23.2955 21.0456C23.0845 21.2566 22.7984 21.3751 22.5 21.3751H19.125V32.5821C22.8951 32.2912 26.406 30.5513 28.921 27.7276C31.436 24.9039 32.7596 21.2159 32.6141 17.4373C32.4686 13.6588 30.8652 10.0835 28.1404 7.46161C25.4157 4.83973 21.7813 3.37508 18 3.375V3.375Z" fill="#0519CE"/>
</svg>
